<svg width="160" height="158" viewBox="0 0 160 158" fill="none" xmlns="http://www.w3.org/2000/svg">
<path d="M79.7728 0.109863C35.7183 0.109863 0 35.8281 0 79.8826C0 117.263 25.74 148.54 60.4412 157.196C60.0689 156.119 59.8296 154.869 59.8296 153.32V139.686C56.5921 139.686 51.1676 139.686 49.8048 139.686C44.347 139.686 39.4942 137.339 37.1409 132.978C34.5283 128.132 34.0763 120.72 27.6014 116.186C25.6802 114.677 27.1427 112.955 29.3564 113.188C33.4447 114.344 36.8351 117.15 40.026 121.311C43.2036 125.479 44.6993 126.423 50.6358 126.423C53.5142 126.423 57.8219 126.257 61.8771 125.619C64.0575 120.081 67.8268 114.983 72.4337 112.576C45.8693 109.844 33.1921 96.6282 33.1921 78.686C33.1921 70.9614 36.4827 63.4893 42.0735 57.1939C40.2387 50.945 37.9319 38.2013 42.7781 33.3485C54.7308 33.3485 61.9568 41.0998 63.6919 43.1938C69.6483 41.1529 76.1896 39.9962 83.0634 39.9962C89.9504 39.9962 96.5184 41.1529 102.488 43.2071C104.203 41.1263 111.436 33.3485 123.415 33.3485C128.281 38.208 125.948 51.0049 124.093 57.2404C129.651 63.5225 132.921 70.9746 132.921 78.686C132.921 96.6149 120.264 109.824 93.7396 112.569C101.039 116.379 106.364 127.081 106.364 135.145V153.32C106.364 154.011 106.211 154.51 106.131 155.102C137.216 144.206 159.546 114.69 159.546 79.8826C159.546 35.8281 123.827 0.109863 79.7728 0.109863Z" fill="white"/>
</svg>
