<svg width="144" height="144" viewBox="0 0 144 144" fill="none" xmlns="http://www.w3.org/2000/svg">
<path d="M126.955 0.16626H17.8636C8.45448 0.16626 0.818115 7.80263 0.818115 17.2117V126.303C0.818115 135.712 8.45448 143.348 17.8636 143.348H126.955C136.364 143.348 144 135.712 144 126.303V17.2117C144 7.80263 136.364 0.16626 126.955 0.16626ZM45.1363 54.7117V119.484H24.6818V54.7117H45.1363ZM24.6818 35.8595C24.6818 31.0867 28.7727 27.439 34.909 27.439C41.0454 27.439 44.8977 31.0867 45.1363 35.8595C45.1363 40.6322 41.3181 44.4845 34.909 44.4845C28.7727 44.4845 24.6818 40.6322 24.6818 35.8595ZM120.136 119.484H99.6818C99.6818 119.484 99.6818 87.9163 99.6818 85.3936C99.6818 78.5754 96.2727 71.7572 87.75 71.6208H87.4772C79.2272 71.6208 75.8181 78.6436 75.8181 85.3936C75.8181 88.4958 75.8181 119.484 75.8181 119.484H55.3636V54.7117H75.8181V63.439C75.8181 63.439 82.3977 54.7117 95.625 54.7117C109.159 54.7117 120.136 64.0185 120.136 82.8708V119.484Z" fill="white"/>
</svg>
