<svg width="150" height="150" viewBox="0 0 150 150" fill="none" xmlns="http://www.w3.org/2000/svg">
<path d="M0 10C0 4.47715 4.47715 0 10 0H140C145.523 0 150 4.47715 150 10V140C150 145.523 145.523 150 140 150H10C4.47715 150 0 145.523 0 140V10Z" fill="black"/>
<path d="M40.727 56.02V69.084H61.795V81.228H40.727V95.396H64.555V108H24.995V43.416H64.555V56.02H40.727Z" fill="white"/>
<path d="M113.868 74.88C117.61 75.6773 120.615 77.548 122.884 80.492C125.154 83.3747 126.288 86.6867 126.288 90.428C126.288 95.8253 124.387 100.119 120.584 103.308C116.843 106.436 111.599 108 104.852 108H74.7685V43.416H103.84C110.403 43.416 115.524 44.9187 119.204 47.924C122.946 50.9293 124.816 55.008 124.816 60.16C124.816 63.9627 123.804 67.1213 121.78 69.636C119.818 72.1507 117.18 73.8987 113.868 74.88ZM90.5005 69.544H100.804C103.38 69.544 105.343 68.992 106.692 67.888C108.103 66.7227 108.808 65.036 108.808 62.828C108.808 60.62 108.103 58.9333 106.692 57.768C105.343 56.6027 103.38 56.02 100.804 56.02H90.5005V69.544ZM102.092 95.304C104.73 95.304 106.754 94.7213 108.164 93.556C109.636 92.3293 110.372 90.5813 110.372 88.312C110.372 86.0427 109.606 84.264 108.072 82.976C106.6 81.688 104.546 81.044 101.908 81.044H90.5005V95.304H102.092Z" fill="white"/>
</svg>
